<?xml version="1.0" encoding="UTF-8"?>
<svg width="56px" height="20px" viewBox="0 0 56 20" version="1.1" xmlns="http://www.w3.org/2000/svg" xmlns:xlink="http://www.w3.org/1999/xlink">
    <!-- Generator: Sketch 58 (84663) - https://sketch.com -->
    <title>csis_logo_white</title>
    <desc>Created with Sketch.</desc>
    <g id="Page-1" stroke="none" stroke-width="1" fill="none" fill-rule="evenodd">
        <g id="Desktop-HD" transform="translate(-53.000000, -167.000000)" fill="#FFFFFF" fill-rule="nonzero">
            <g id="csis_logo_white" transform="translate(53.000000, 167.000000)">
                <path d="M14.3737066,0.535714286 C15.1625076,0.625 16.1265977,1.07142857 16.5648205,1.07142857 C16.7401096,1.07142857 17.0030432,1.25 17.0030432,1.96428571 C17.0030432,2.58928571 17.1783323,3.83928571 17.1783323,4.55357143 C17.1783323,5.17857143 17.0030432,5.53571429 16.7401096,5.53571429 C16.5648205,5.53571429 16.3895313,5.17857143 16.3018868,4.73214286 C16.0389531,3.66071429 15.5130858,2.85714286 15.0748631,2.5 C13.4972611,1.25 12.0073037,0.982142857 10.4297018,0.982142857 C5.78454047,0.982142857 2.80462568,4.91071429 2.80462568,9.375 C2.80462568,11.3392857 3.1552039,12.9464286 3.85636032,14.1964286 C5.43396226,17.5892857 8.85209982,18.9285714 11.2185027,18.9285714 C11.7443701,18.9285714 13.1466829,18.8392857 14.3737066,18.125 C15.6883749,17.4107143 16.3895313,16.5178571 17.0906878,15.2678571 C17.441266,14.6428571 17.6165551,14.4642857 17.7041996,14.4642857 C17.9671333,14.4642857 18.0547778,15.0892857 17.9671333,15.4464286 C17.8794887,16.1607143 17.1783323,17.7678571 16.8277541,18.3928571 C16.7401096,18.6607143 16.2142422,19.0178571 15.9513086,19.1964286 C15.5130858,19.375 13.1466829,20 10.6926354,20 C6.57334145,20 3.59342666,17.9464286 2.45404747,16.5178571 C1.31466829,15.1785714 0,13.125 0,9.73214286 C0,6.33928571 1.92818016,3.66071429 3.1552039,2.67857143 C5.60925137,0.625 8.3262325,0 10.9555691,0 C11.9196592,0.0892857143 13.2343274,0.267857143 14.3737066,0.535714286 L14.3737066,0.535714286 Z" id="Path"></path>
                <path d="M30.875,0.535714286 C31.0625,0.625 31.25,1.07142857 31.25,1.07142857 C31.34375,1.60714286 31.53125,3.30357143 31.53125,3.48214286 C31.53125,4.01785714 31.53125,4.28571429 31.34375,4.28571429 C31.0625,4.28571429 30.6875,4.10714286 30.59375,3.66071429 C30.21875,2.58928571 29.375,1.69642857 29.09375,1.51785714 C28.53125,1.07142857 27.78125,0.803571429 26.9375,0.803571429 C24.875,0.803571429 23.375,2.32142857 23.375,4.28571429 C23.375,6.33928571 24.96875,7.32142857 27.6875,9.01785714 C30.03125,10.5357143 32,12.0535714 32,14.7321429 C32,16.25 31.15625,17.8571429 29.46875,18.9285714 C28.4375,19.5535714 26.65625,20 25.25,20 C24.21875,20 22.15625,19.6428571 21.21875,19.1964286 C20.9375,19.0178571 20.46875,18.3928571 20.46875,18.2142857 C20.28125,17.2321429 20,15.8928571 20,15.4464286 C20,15.3571429 20.28125,14.9107143 20.46875,14.9107143 C20.75,14.9107143 21.21875,15.7142857 21.59375,16.6071429 C22.4375,18.2142857 24.40625,18.9285714 25.625,18.9285714 C27.78125,18.9285714 29.375,17.5 29.375,15.3571429 C29.375,14.1071429 28.71875,12.7678571 25.53125,10.8035714 C22.90625,9.19642857 21.03125,7.5 21.03125,5 C21.03125,3.57142857 21.6875,2.32142857 22.71875,1.42857143 C23.65625,0.625 25.15625,0 27.3125,0 C28.71875,0 30.40625,0.446428571 30.875,0.535714286 Z" id="Path"></path>
                <path d="M36.5217391,3.91627907 C36.4347826,2.59069767 36.4347826,2.14883721 34.8695652,1.88372093 C34.2608696,1.79534884 34.0869565,1.53023256 34.0869565,1.35348837 C34.0869565,1.08837209 34.4347826,1 34.7826087,1 C35.5652174,1 36.9565217,1.08837209 37.9130435,1.08837209 C39.3043478,1.08837209 40,1 40.9565217,1 C41.3913043,1 41.6521739,1.08837209 41.6521739,1.35348837 C41.6521739,1.61860465 41.3913043,1.79534884 40.8695652,1.88372093 C39.2173913,2.2372093 39.2173913,2.94418605 39.1304348,3.73953488 C39.0434783,4.62325581 39.0434783,6.56744186 39.0434783,12.3116279 C39.0434783,13.9023256 39.0434783,15.7581395 39.1304348,16.6418605 C39.2173913,18.2325581 39.3913043,18.7627907 41.2173913,19.1162791 C41.7391304,19.2046512 42,19.3813953 42,19.6465116 C42,19.9116279 41.5652174,20 41.2173913,20 C39.7391304,20 37.7391304,19.8232558 36.9565217,19.8232558 C36.0869565,19.8232558 35.826087,19.9116279 34.7826087,19.9116279 C34.2608696,19.9116279 34,19.7348837 34,19.4697674 C34,19.2930233 34.2608696,19.1162791 34.8695652,18.9395349 C36.3478261,18.5860465 36.4347826,18.144186 36.5217391,16.8186047 C36.6086957,15.7581395 36.6956522,12.7534884 36.6956522,10.2790698 C36.6086957,8.51162791 36.6086957,4.88837209 36.5217391,3.91627907 L36.5217391,3.91627907 Z" id="Path"></path>
                <path d="M54.875,0.535714286 C55.0625,0.625 55.25,1.07142857 55.25,1.07142857 C55.34375,1.60714286 55.53125,3.30357143 55.53125,3.48214286 C55.53125,4.01785714 55.53125,4.28571429 55.34375,4.28571429 C55.0625,4.28571429 54.6875,4.10714286 54.59375,3.66071429 C54.21875,2.58928571 53.375,1.69642857 53.09375,1.51785714 C52.53125,1.07142857 51.78125,0.803571429 50.9375,0.803571429 C48.875,0.803571429 47.375,2.32142857 47.375,4.28571429 C47.375,6.33928571 48.96875,7.32142857 51.6875,9.01785714 C54.03125,10.5357143 56,12.0535714 56,14.7321429 C56,16.25 55.15625,17.8571429 53.46875,18.9285714 C52.4375,19.5535714 50.65625,20 49.25,20 C48.21875,20 46.15625,19.6428571 45.21875,19.1964286 C44.9375,19.0178571 44.46875,18.3928571 44.46875,18.2142857 C44.28125,17.2321429 44,15.8928571 44,15.4464286 C44,15.3571429 44.28125,14.9107143 44.46875,14.9107143 C44.75,14.9107143 45.21875,15.7142857 45.59375,16.6071429 C46.4375,18.2142857 48.40625,18.9285714 49.625,18.9285714 C51.78125,18.9285714 53.375,17.5 53.375,15.3571429 C53.375,14.1071429 52.71875,12.7678571 49.53125,10.8035714 C46.90625,9.19642857 45.03125,7.5 45.03125,5 C45.03125,3.57142857 45.6875,2.32142857 46.71875,1.42857143 C47.65625,0.625 49.15625,0 51.3125,0 C52.71875,0 54.40625,0.446428571 54.875,0.535714286 L54.875,0.535714286 Z" id="Path"></path>
            </g>
        </g>
    </g>
</svg>