<?xml version="1.0" encoding="UTF-8"?>
<svg width="278px" height="40px" viewBox="0 0 278 40" version="1.1" xmlns="http://www.w3.org/2000/svg" xmlns:xlink="http://www.w3.org/1999/xlink">
    <!-- Generator: Sketch 58 (84663) - https://sketch.com -->
    <title>csis_logo_white</title>
    <desc>Created with Sketch.</desc>
    <g id="Page-1" stroke="none" stroke-width="1" fill="none" fill-rule="evenodd">
        <g id="Desktop-HD" transform="translate(-36.000000, -200.000000)" fill="#FFFFFF" fill-rule="nonzero">
            <g id="csis_logo_white" transform="translate(36.000000, 200.000000)">
                <path d="M20.7620207,4.91964286 C21.9013999,5.04910714 23.2939744,5.69642857 23.9269629,5.69642857 C24.1801582,5.69642857 24.5599513,5.95535714 24.5599513,6.99107143 C24.5599513,7.89732143 24.8131467,9.70982143 24.8131467,10.7455357 C24.8131467,11.6517857 24.5599513,12.1696429 24.1801582,12.1696429 C23.9269629,12.1696429 23.6737675,11.6517857 23.5471698,11.0044643 C23.1673767,9.45089286 22.4077906,8.28571429 21.7748022,7.76785714 C19.4960438,5.95535714 17.3438831,5.56696429 15.0651248,5.56696429 C8.35544735,5.56696429 4.05112599,11.2633929 4.05112599,17.7366071 C4.05112599,20.5848214 4.55751674,22.9151786 5.57029823,24.7276786 C7.8490566,29.6473214 12.7863664,31.5892857 16.204504,31.5892857 C16.9640901,31.5892857 18.9896531,31.4598214 20.7620207,30.4241071 C22.660986,29.3883929 23.6737675,28.09375 24.686549,26.28125 C25.1929397,25.375 25.4461351,25.1160714 25.5727328,25.1160714 C25.9525259,25.1160714 26.0791236,26.0223214 25.9525259,26.5401786 C25.8259282,27.5758929 24.8131467,29.90625 24.3067559,30.8125 C24.1801582,31.2008929 23.4205721,31.71875 23.0407791,31.9776786 C22.4077906,32.2366071 18.9896531,33.1428571 15.4449178,33.1428571 C9.49482654,33.1428571 5.19050517,30.1651786 3.54473524,28.09375 C1.89896531,26.1517857 0,23.1741071 0,18.2544643 C0,13.3348214 2.78514912,9.45089286 4.55751674,8.02678571 C8.10225198,5.04910714 12.0267803,4.14285714 15.8247109,4.14285714 C17.2172855,4.27232143 19.1162508,4.53125 20.7620207,4.91964286 L20.7620207,4.91964286 Z" id="Path"></path>
                <path d="M44.40625,5.91964286 C44.671875,6.04910714 44.9375,6.69642857 44.9375,6.69642857 C45.0703125,7.47321429 45.3359375,9.93303571 45.3359375,10.1919643 C45.3359375,10.96875 45.3359375,11.3571429 45.0703125,11.3571429 C44.671875,11.3571429 44.140625,11.0982143 44.0078125,10.4508929 C43.4765625,8.89732143 42.28125,7.60267857 41.8828125,7.34375 C41.0859375,6.69642857 40.0234375,6.30803571 38.828125,6.30803571 C35.90625,6.30803571 33.78125,8.50892857 33.78125,11.3571429 C33.78125,14.3348214 36.0390625,15.7589286 39.890625,18.21875 C43.2109375,20.4196429 46,22.6205357 46,26.5044643 C46,28.7053571 44.8046875,31.0357143 42.4140625,32.5892857 C40.953125,33.4955357 38.4296875,34.1428571 36.4375,34.1428571 C34.9765625,34.1428571 32.0546875,33.625 30.7265625,32.9776786 C30.328125,32.71875 29.6640625,31.8125 29.6640625,31.5535714 C29.3984375,30.1294643 29,28.1875 29,27.5401786 C29,27.4107143 29.3984375,26.7633929 29.6640625,26.7633929 C30.0625,26.7633929 30.7265625,27.9285714 31.2578125,29.2232143 C32.453125,31.5535714 35.2421875,32.5892857 36.96875,32.5892857 C40.0234375,32.5892857 42.28125,30.5178571 42.28125,27.4107143 C42.28125,25.5982143 41.3515625,23.65625 36.8359375,20.8080357 C33.1171875,18.4776786 30.4609375,16.0178571 30.4609375,12.3928571 C30.4609375,10.3214286 31.390625,8.50892857 32.8515625,7.21428571 C34.1796875,6.04910714 36.3046875,5.14285714 39.359375,5.14285714 C41.3515625,5.14285714 43.7421875,5.79017857 44.40625,5.91964286 Z" id="Path"></path>
                <path d="M53.7826087,9.44053156 C53.6521739,7.48704319 53.6521739,6.8358804 51.3043478,6.44518272 C50.3913043,6.31495017 50.1304348,5.92425249 50.1304348,5.66378738 C50.1304348,5.2730897 50.6521739,5.14285714 51.173913,5.14285714 C52.3478261,5.14285714 54.4347826,5.2730897 55.8695652,5.2730897 C57.9565217,5.2730897 59,5.14285714 60.4347826,5.14285714 C61.0869565,5.14285714 61.4782609,5.2730897 61.4782609,5.66378738 C61.4782609,6.05448505 61.0869565,6.31495017 60.3043478,6.44518272 C57.826087,6.96611296 57.826087,8.00797342 57.6956522,9.18006645 C57.5652174,10.482392 57.5652174,13.3475083 57.5652174,21.8126246 C57.5652174,24.1568106 57.5652174,26.8916944 57.6956522,28.1940199 C57.826087,30.538206 58.0869565,31.3196013 60.826087,31.8405316 C61.6086957,31.9707641 62,32.2312292 62,32.6219269 C62,33.0126246 61.3478261,33.1428571 60.826087,33.1428571 C58.6086957,33.1428571 55.6086957,32.882392 54.4347826,32.882392 C53.1304348,32.882392 52.7391304,33.0126246 51.173913,33.0126246 C50.3913043,33.0126246 50,32.7521595 50,32.3614618 C50,32.1009967 50.3913043,31.8405316 51.3043478,31.5800664 C53.5217391,31.0591362 53.6521739,30.4079734 53.7826087,28.454485 C53.9130435,26.8916944 54.0434783,22.4637874 54.0434783,18.8172757 C53.9130435,16.2126246 53.9130435,10.8730897 53.7826087,9.44053156 L53.7826087,9.44053156 Z" id="Path"></path>
                <path d="M79.40625,5.91964286 C79.671875,6.04910714 79.9375,6.69642857 79.9375,6.69642857 C80.0703125,7.47321429 80.3359375,9.93303571 80.3359375,10.1919643 C80.3359375,10.96875 80.3359375,11.3571429 80.0703125,11.3571429 C79.671875,11.3571429 79.140625,11.0982143 79.0078125,10.4508929 C78.4765625,8.89732143 77.28125,7.60267857 76.8828125,7.34375 C76.0859375,6.69642857 75.0234375,6.30803571 73.828125,6.30803571 C70.90625,6.30803571 68.78125,8.50892857 68.78125,11.3571429 C68.78125,14.3348214 71.0390625,15.7589286 74.890625,18.21875 C78.2109375,20.4196429 81,22.6205357 81,26.5044643 C81,28.7053571 79.8046875,31.0357143 77.4140625,32.5892857 C75.953125,33.4955357 73.4296875,34.1428571 71.4375,34.1428571 C69.9765625,34.1428571 67.0546875,33.625 65.7265625,32.9776786 C65.328125,32.71875 64.6640625,31.8125 64.6640625,31.5535714 C64.3984375,30.1294643 64,28.1875 64,27.5401786 C64,27.4107143 64.3984375,26.7633929 64.6640625,26.7633929 C65.0625,26.7633929 65.7265625,27.9285714 66.2578125,29.2232143 C67.453125,31.5535714 70.2421875,32.5892857 71.96875,32.5892857 C75.0234375,32.5892857 77.28125,30.5178571 77.28125,27.4107143 C77.28125,25.5982143 76.3515625,23.65625 71.8359375,20.8080357 C68.1171875,18.4776786 65.4609375,16.0178571 65.4609375,12.3928571 C65.4609375,10.3214286 66.390625,8.50892857 67.8515625,7.21428571 C69.1796875,6.04910714 71.3046875,5.14285714 74.359375,5.14285714 C76.3515625,5.14285714 78.7421875,5.79017857 79.40625,5.91964286 L79.40625,5.91964286 Z" id="Path"></path>
                <path d="M97,38.4928571 L97,0.792857143 C97,0.402857143 97.2,0.142857143 97.5,0.142857143 C97.8,0.142857143 98,0.402857143 98,0.792857143 L98,38.4928571 C98,38.8828571 97.8,39.1428571 97.5,39.1428571 C97.3,39.1428571 97,38.8828571 97,38.4928571 Z" id="Path"></path>
                <path d="M117.48,17.1428571 C115.56,17.1428571 114,15.9339019 114,12.575693 C114,9.75479744 115.56,8.14285714 117.48,8.14285714 L119.76,8.14285714 C119.88,8.14285714 119.88,8.14285714 119.88,8.2771855 L119.76,9.21748401 C119.76,9.35181237 119.64,9.35181237 119.52,9.35181237 C118.8,9.08315565 118.56,8.94882729 117.36,8.94882729 C116.16,8.94882729 115.56,10.2921109 115.56,12.7100213 C115.56,15.6652452 116.64,16.4712154 117.84,16.4712154 C118.44,16.4712154 119.04,16.0682303 119.52,15.5309168 L119.64,15.5309168 L120,15.9339019 L120,16.0682303 C119.4,16.7398721 118.44,17.1428571 117.48,17.1428571 L117.48,17.1428571 Z" id="Path"></path>
                <path d="M127.6,17.1428571 L122.133333,17.1428571 C122,17.1428571 122,17.1428571 122,17.0064935 L122,12.6428571 L122,8.27922078 C122,8.14285714 122,8.14285714 122.133333,8.14285714 L127.466667,8.14285714 C127.6,8.14285714 127.733333,8.14285714 127.733333,8.27922078 L127.733333,8.96103896 C127.733333,9.0974026 127.6,9.0974026 127.466667,9.0974026 C127.466667,9.0974026 125.866667,8.82467532 125.2,8.82467532 L124,8.82467532 C123.866667,8.82467532 123.6,8.96103896 123.6,9.23376623 L123.6,11.961039 C123.6,11.961039 123.6,12.0974026 123.733333,12.0974026 L126.4,11.961039 C126.533333,11.961039 126.533333,11.961039 126.533333,12.0974026 L126.533333,12.7792208 C126.533333,12.9155844 126.4,12.9155844 126.4,12.9155844 L123.733333,12.7792208 C123.733333,12.7792208 123.6,12.7792208 123.6,12.9155844 L123.6,16.0519481 C123.6,16.1883117 123.733333,16.461039 124,16.461039 L125.2,16.461039 C126,16.461039 127.733333,16.1883117 127.733333,16.1883117 C127.866667,16.1883117 128,16.1883117 128,16.3246753 L128,17.1428571 C127.866667,17.1428571 127.733333,17.1428571 127.6,17.1428571 L127.6,17.1428571 Z" id="Path"></path>
                <path d="M137,14.5280195 L137,16.9224554 C137,17.1885038 136.176471,17.1885038 136.176471,17.0554796 L131.372549,10.6703172 C131.235294,10.537293 131.235294,10.6703172 131.235294,10.6703172 L131.372549,16.656407 C131.372549,16.7894312 131.372549,16.9224554 131.235294,16.9224554 L130.137255,16.9224554 C130,16.9224554 130,16.7894312 130,16.656407 L130.137255,10.4042688 L130.137255,8.27588136 C130.137255,8.14285714 130.137255,8.14285714 130.27451,8.14285714 L131.098039,8.14285714 C131.235294,8.14285714 131.372549,8.14285714 131.372549,8.27588136 L135.627451,13.9959227 C135.764706,14.1289469 135.901961,14.1289469 135.901961,13.9959227 L135.764706,8.54192979 C135.764706,8.40890558 135.764706,8.27588136 135.901961,8.27588136 L136.862745,8.27588136 C137,8.27588136 137,8.40890558 137,8.54192979 L137,14.5280195 Z" id="Path"></path>
                <path d="M144.867925,8.94882729 C144.867925,9.08315565 144.735849,9.08315565 144.735849,9.08315565 C144.735849,9.08315565 143.283019,8.94882729 142.490566,8.94882729 C142.358491,8.94882729 142.226415,9.08315565 142.226415,9.21748401 L142.226415,12.7100213 L142.226415,17.0085288 C142.226415,17.1428571 142.226415,17.1428571 142.09434,17.1428571 L140.773585,17.1428571 C140.641509,17.1428571 140.641509,17.1428571 140.641509,17.0085288 L140.641509,12.7100213 L140.641509,9.21748401 C140.641509,9.08315565 140.509434,8.94882729 140.377358,8.94882729 C139.584906,8.94882729 138.132075,9.08315565 138.132075,9.08315565 C138,9.08315565 138,9.08315565 138,8.94882729 L138,8.2771855 C138,8.14285714 138.132075,8.14285714 138.264151,8.14285714 L144.735849,8.14285714 C144.867925,8.14285714 145,8.14285714 145,8.2771855 L144.867925,8.94882729 Z" id="Path"></path>
                <path d="M152.6,17.1428571 L147.133333,17.1428571 C147,17.1428571 147,17.1428571 147,17.0064935 L147,12.6428571 L147,8.27922078 C147,8.14285714 147,8.14285714 147.133333,8.14285714 L152.466667,8.14285714 C152.6,8.14285714 152.733333,8.14285714 152.733333,8.27922078 L152.733333,8.96103896 C152.733333,9.0974026 152.6,9.0974026 152.466667,9.0974026 C152.466667,9.0974026 150.866667,8.82467532 150.2,8.82467532 L149,8.82467532 C148.866667,8.82467532 148.6,8.96103896 148.6,9.23376623 L148.6,11.961039 C148.6,11.961039 148.6,12.0974026 148.733333,12.0974026 L151.4,11.961039 C151.533333,11.961039 151.533333,11.961039 151.533333,12.0974026 L151.533333,12.7792208 C151.533333,12.9155844 151.4,12.9155844 151.4,12.9155844 L148.733333,12.7792208 C148.733333,12.7792208 148.6,12.7792208 148.6,12.9155844 L148.6,16.0519481 C148.6,16.1883117 148.733333,16.461039 149,16.461039 L150.2,16.461039 C151,16.461039 152.733333,16.1883117 152.733333,16.1883117 C152.866667,16.1883117 153,16.1883117 153,16.3246753 L153,17.1428571 C152.866667,17.1428571 152.733333,17.1428571 152.6,17.1428571 L152.6,17.1428571 Z" id="Path"></path>
                <path d="M161.740741,17.0064935 L160.185185,17.0064935 C160.055556,17.0064935 160.055556,16.8701299 159.925926,16.8701299 L158.111111,13.461039 C157.851852,13.0519481 157.592593,12.9155844 157.333333,12.9155844 L156.814815,12.9155844 C156.685185,12.9155844 156.555556,13.0519481 156.555556,13.1883117 L156.555556,17.0064935 C156.555556,17.1428571 156.555556,17.1428571 156.425926,17.1428571 L155.12963,17.1428571 C155,17.1428571 155,17.1428571 155,17.0064935 L155,12.6428571 L155,8.27922078 C155,8.14285714 155,8.14285714 155.12963,8.14285714 L158.888889,8.14285714 C160.185185,8.14285714 161.222222,9.0974026 161.222222,10.3246753 C161.222222,11.5519481 160.314815,12.5064935 159.148148,12.7792208 C159.018519,12.7792208 159.018519,12.9155844 159.148148,12.9155844 C159.277778,13.0519481 159.407407,13.1883117 159.666667,13.5974026 L161.611111,16.461039 L162,17.0064935 C161.87037,17.0064935 161.87037,17.0064935 161.740741,17.0064935 L161.740741,17.0064935 Z M157.851852,8.55194805 L156.944444,8.55194805 C156.814815,8.55194805 156.555556,8.68831169 156.555556,8.96103896 L156.555556,11.961039 C156.555556,12.0974026 156.685185,12.2337662 156.814815,12.2337662 L157.333333,12.2337662 C158.62963,12.2337662 159.407407,11.6883117 159.407407,10.3246753 C159.407407,9.23376623 158.759259,8.55194805 157.851852,8.55194805 Z" id="Shape"></path>
                <path d="M172.761905,9.0974026 C172.761905,9.0974026 171.214286,8.82467532 170.738095,8.82467532 L169.785714,8.82467532 C169.666667,8.82467532 169.428571,8.96103896 169.428571,9.23376623 L169.428571,11.961039 C169.428571,11.961039 169.428571,12.0974026 169.547619,12.0974026 L171.809524,11.961039 C171.928571,11.961039 171.928571,11.961039 171.928571,12.0974026 L171.928571,12.7792208 C171.928571,12.9155844 171.809524,12.9155844 171.809524,12.9155844 L169.547619,12.7792208 C169.547619,12.7792208 169.428571,12.7792208 169.428571,12.9155844 L169.428571,17.0064935 C169.428571,17.1428571 169.428571,17.1428571 169.309524,17.1428571 L168.119048,17.1428571 C168,17.1428571 168,17.1428571 168,17.0064935 L168,12.6428571 L168,8.27922078 C168,8.14285714 168,8.14285714 168.119048,8.14285714 L172.761905,8.14285714 C172.880952,8.14285714 173,8.14285714 173,8.27922078 L173,8.96103896 C173,9.0974026 172.880952,9.0974026 172.761905,9.0974026 L172.761905,9.0974026 Z" id="Path"></path>
                <path d="M178.5,17.1428571 C175.844828,17.1428571 175,14.9571429 175,12.6428571 C175,10.3285714 175.844828,8.14285714 178.5,8.14285714 C181.155172,8.14285714 182,10.3285714 182,12.6428571 C182,14.8285714 181.155172,17.1428571 178.5,17.1428571 Z M178.5,8.78571429 C176.931034,8.78571429 176.689655,10.8428571 176.689655,12.5142857 C176.689655,14.0571429 176.810345,16.6285714 178.62069,16.6285714 C180.189655,16.6285714 180.431034,14.5714286 180.431034,12.9 C180.431034,11.2285714 180.310345,8.78571429 178.5,8.78571429 L178.5,8.78571429 Z" id="Shape"></path>
                <path d="M191.740741,17.0064935 L190.185185,17.0064935 C190.055556,17.0064935 190.055556,16.8701299 189.925926,16.8701299 L188.111111,13.461039 C187.851852,13.0519481 187.592593,12.9155844 187.333333,12.9155844 L186.814815,12.9155844 C186.685185,12.9155844 186.555556,13.0519481 186.555556,13.1883117 L186.555556,17.0064935 C186.555556,17.1428571 186.555556,17.1428571 186.425926,17.1428571 L185.12963,17.1428571 C185,17.1428571 185,17.1428571 185,17.0064935 L185,12.6428571 L185,8.27922078 C185,8.14285714 185,8.14285714 185.12963,8.14285714 L188.888889,8.14285714 C190.185185,8.14285714 191.222222,9.0974026 191.222222,10.3246753 C191.222222,11.5519481 190.314815,12.5064935 189.148148,12.7792208 C189.018519,12.7792208 189.018519,12.9155844 189.148148,12.9155844 C189.277778,13.0519481 189.407407,13.1883117 189.666667,13.5974026 L191.611111,16.461039 L192,17.0064935 C191.87037,17.0064935 191.87037,17.0064935 191.740741,17.0064935 L191.740741,17.0064935 Z M187.851852,8.55194805 L186.944444,8.55194805 C186.814815,8.55194805 186.555556,8.68831169 186.555556,8.96103896 L186.555556,11.961039 C186.555556,12.0974026 186.685185,12.2337662 186.814815,12.2337662 L187.333333,12.2337662 C188.62963,12.2337662 189.407407,11.6883117 189.407407,10.3246753 C189.407407,9.23376623 188.759259,8.55194805 187.851852,8.55194805 Z" id="Shape"></path>
                <path d="M200.059713,17.1428571 C198.784832,17.1428571 197.892416,16.8819876 197.127488,16.4906832 C197,16.4906832 197,16.3602484 197,16.2298137 L197.254976,15.3167702 C197.254976,15.1863354 197.382464,15.1863354 197.509952,15.3167702 C198.147392,15.9689441 199.039808,16.4906832 200.059713,16.4906832 C200.824641,16.4906832 201.717057,15.8385093 201.717057,15.0559006 C201.717057,12.8385093 197,13.7515528 197,10.4906832 C197,9.05590062 198.019904,8.14285714 199.549761,8.14285714 C200.824641,8.14285714 201.844545,8.40372671 202.481985,8.40372671 C202.609473,8.40372671 202.609473,8.53416149 202.609473,8.53416149 L202.354497,9.44720497 C202.354497,9.57763975 202.227009,9.57763975 202.099521,9.57763975 C201.462081,9.1863354 200.824641,8.79503106 199.549761,8.79503106 C198.91232,8.79503106 198.27488,9.1863354 198.27488,9.9689441 C198.27488,12.3167702 202.991937,11.1428571 202.991937,14.7950311 C203.119425,16.4906832 201.717057,17.1428571 200.059713,17.1428571 L200.059713,17.1428571 Z" id="Path"></path>
                <path d="M211.867925,8.94882729 C211.867925,9.08315565 211.735849,9.08315565 211.735849,9.08315565 C211.735849,9.08315565 210.283019,8.94882729 209.490566,8.94882729 C209.358491,8.94882729 209.226415,9.08315565 209.226415,9.21748401 L209.226415,12.7100213 L209.226415,17.0085288 C209.226415,17.1428571 209.226415,17.1428571 209.09434,17.1428571 L207.773585,17.1428571 C207.641509,17.1428571 207.641509,17.1428571 207.641509,17.0085288 L207.641509,12.7100213 L207.641509,9.21748401 C207.641509,9.08315565 207.509434,8.94882729 207.377358,8.94882729 C206.584906,8.94882729 205.132075,9.08315565 205.132075,9.08315565 C205,9.08315565 205,9.08315565 205,8.94882729 L205,8.2771855 C205,8.14285714 205.132075,8.14285714 205.264151,8.14285714 L211.735849,8.14285714 C211.867925,8.14285714 212,8.14285714 212,8.2771855 L211.867925,8.94882729 Z" id="Path"></path>
                <path d="M220.740741,17.0064935 L219.185185,17.0064935 C219.055556,17.0064935 219.055556,16.8701299 218.925926,16.8701299 L217.111111,13.461039 C216.851852,13.0519481 216.592593,12.9155844 216.333333,12.9155844 L215.814815,12.9155844 C215.685185,12.9155844 215.555556,13.0519481 215.555556,13.1883117 L215.555556,17.0064935 C215.555556,17.1428571 215.555556,17.1428571 215.425926,17.1428571 L214.12963,17.1428571 C214,17.1428571 214,17.1428571 214,17.0064935 L214,12.6428571 L214,8.27922078 C214,8.14285714 214,8.14285714 214.12963,8.14285714 L217.888889,8.14285714 C219.185185,8.14285714 220.222222,9.0974026 220.222222,10.3246753 C220.222222,11.5519481 219.314815,12.5064935 218.148148,12.7792208 C218.018519,12.7792208 218.018519,12.9155844 218.148148,12.9155844 C218.277778,13.0519481 218.407407,13.1883117 218.666667,13.5974026 L220.611111,16.461039 L221,17.0064935 C221,17.0064935 220.87037,17.0064935 220.740741,17.0064935 L220.740741,17.0064935 Z M216.851852,8.55194805 L215.944444,8.55194805 C215.814815,8.55194805 215.555556,8.68831169 215.555556,8.96103896 L215.555556,11.961039 C215.555556,12.0974026 215.685185,12.2337662 215.814815,12.2337662 L216.333333,12.2337662 C217.62963,12.2337662 218.407407,11.6883117 218.407407,10.3246753 C218.407407,9.23376623 217.759259,8.55194805 216.851852,8.55194805 Z" id="Shape"></path>
                <path d="M229.901235,17.1428571 L228.320988,17.1428571 C228.1893,17.1428571 228.057613,17.1428571 228.057613,17.0080257 C228.057613,17.0080257 227.794239,16.3338684 227.662551,15.929374 L227.135802,14.7158909 C227.135802,14.5810594 227.004115,14.5810594 227.004115,14.5810594 L224.238683,14.5810594 C224.106996,14.5810594 224.106996,14.5810594 224.106996,14.7158909 L223.44856,17.0080257 C223.44856,17.1428571 223.316872,17.1428571 223.185185,17.1428571 L222.131687,17.1428571 C222,17.1428571 222,17.0080257 222,16.8731942 L225.292181,8.24398074 C225.292181,8.10914928 226.345679,8.10914928 226.345679,8.24398074 L229.374486,15.929374 C229.506173,16.3338684 229.901235,16.8731942 229.901235,16.8731942 C230.032922,17.1428571 230.032922,17.1428571 229.901235,17.1428571 L229.901235,17.1428571 Z M225.687243,10.5361156 C225.687243,10.4012841 225.555556,10.4012841 225.555556,10.5361156 L224.37037,13.9069021 C224.37037,14.0417335 224.37037,14.0417335 224.502058,14.0417335 L226.740741,14.0417335 C226.872428,14.0417335 226.872428,13.9069021 226.872428,13.9069021 L225.687243,10.5361156 Z" id="Shape"></path>
                <path d="M236.867925,8.94882729 C236.867925,9.08315565 236.735849,9.08315565 236.735849,9.08315565 C236.735849,9.08315565 235.283019,8.94882729 234.490566,8.94882729 C234.358491,8.94882729 234.226415,9.08315565 234.226415,9.21748401 L234.226415,12.7100213 L234.226415,17.0085288 C234.226415,17.1428571 234.226415,17.1428571 234.09434,17.1428571 L232.773585,17.1428571 C232.641509,17.1428571 232.641509,17.1428571 232.641509,17.0085288 L232.641509,12.7100213 L232.641509,9.21748401 C232.641509,9.08315565 232.509434,8.94882729 232.377358,8.94882729 C231.584906,8.94882729 230.132075,9.08315565 230.132075,9.08315565 C230,9.08315565 230,9.08315565 230,8.94882729 L230,8.2771855 C230,8.14285714 230.132075,8.14285714 230.264151,8.14285714 L236.735849,8.14285714 C236.867925,8.14285714 237,8.14285714 237,8.2771855 L236.867925,8.94882729 Z" id="Path"></path>
                <path d="M244.6,17.1428571 L239.133333,17.1428571 C239,17.1428571 239,17.1428571 239,17.0064935 L239,12.6428571 L239,8.27922078 C239,8.14285714 239,8.14285714 239.133333,8.14285714 L244.466667,8.14285714 C244.6,8.14285714 244.733333,8.14285714 244.733333,8.27922078 L244.733333,8.96103896 C244.733333,9.0974026 244.6,9.0974026 244.466667,9.0974026 C244.466667,9.0974026 242.866667,8.82467532 242.2,8.82467532 L241,8.82467532 C240.866667,8.82467532 240.6,8.96103896 240.6,9.23376623 L240.6,11.961039 C240.6,11.961039 240.6,12.0974026 240.733333,12.0974026 L243.4,11.961039 C243.533333,11.961039 243.533333,11.961039 243.533333,12.0974026 L243.533333,12.7792208 C243.533333,12.9155844 243.4,12.9155844 243.4,12.9155844 L240.733333,12.7792208 C240.733333,12.7792208 240.6,12.7792208 240.6,12.9155844 L240.6,16.0519481 C240.6,16.1883117 240.733333,16.461039 241,16.461039 L242.2,16.461039 C243,16.461039 244.733333,16.1883117 244.733333,16.1883117 C244.866667,16.1883117 245,16.1883117 245,16.3246753 L245,17.1428571 C244.733333,17.1428571 244.6,17.1428571 244.6,17.1428571 L244.6,17.1428571 Z" id="Path"></path>
                <path d="M252.867925,17.0085288 C252.735849,17.0085288 252.339623,16.6055437 252.339623,16.6055437 C252.207547,16.6055437 252.207547,16.6055437 252.075472,16.6055437 C251.54717,16.8742004 250.754717,17.1428571 249.830189,17.1428571 C247.716981,17.1428571 246,15.9339019 246,12.575693 C246,9.75479744 247.716981,8.14285714 249.830189,8.14285714 L252.339623,8.14285714 C252.471698,8.14285714 252.471698,8.14285714 252.471698,8.2771855 L252.339623,9.21748401 C252.339623,9.35181237 252.207547,9.35181237 252.075472,9.35181237 C251.283019,9.08315565 251.018868,8.94882729 249.698113,8.94882729 C248.377358,8.94882729 247.716981,10.2921109 247.716981,12.7100213 C247.716981,15.6652452 248.90566,16.6055437 250.226415,16.6055437 C250.754717,16.6055437 251.54717,16.2025586 251.54717,15.6652452 C251.54717,15.5309168 251.415094,13.2473348 251.415094,13.2473348 C251.415094,13.2473348 251.415094,12.978678 251.415094,12.8443497 C251.415094,12.7100213 251.54717,12.575693 251.54717,12.575693 L252.867925,12.575693 C252.867925,12.575693 253,12.575693 253,12.7100213 L253,17.0085288 L252.867925,17.0085288 Z" id="Path"></path>
                <path d="M257.833333,17.1428571 L256.166667,17.1428571 C256,17.1428571 256,17.1428571 256,17.0064935 L256,12.6428571 L256,8.27922078 C256,8.14285714 256,8.14285714 256.166667,8.14285714 L257.833333,8.14285714 C258,8.14285714 258,8.14285714 258,8.27922078 L258,12.6428571 L258,17.0064935 C258,17.1428571 258,17.1428571 257.833333,17.1428571 Z" id="Path"></path>
                <path d="M263.48,17.1428571 C261.56,17.1428571 260,15.9339019 260,12.575693 C260,9.75479744 261.56,8.14285714 263.48,8.14285714 L265.76,8.14285714 C265.88,8.14285714 265.88,8.14285714 265.88,8.2771855 L265.76,9.21748401 C265.76,9.35181237 265.64,9.35181237 265.52,9.35181237 C264.8,9.08315565 264.56,8.94882729 263.36,8.94882729 C262.16,8.94882729 261.56,10.2921109 261.56,12.7100213 C261.56,15.6652452 262.64,16.4712154 263.84,16.4712154 C264.44,16.4712154 265.04,16.0682303 265.52,15.5309168 L265.64,15.5309168 L266,15.9339019 L266,16.0682303 C265.4,16.7398721 264.44,17.1428571 263.48,17.1428571 L263.48,17.1428571 Z" id="Path"></path>
                <path d="M277.618182,12.8928571 L276.6,12.8928571 L276.6,16.0178571 C276.6,16.1428571 276.472727,16.1428571 276.472727,16.1428571 L273.290909,16.1428571 C271.763636,16.1428571 271,15.1428571 271,14.2678571 C271,13.3928571 271.636364,12.6428571 272.654545,12.3928571 C272.018182,12.1428571 271.636364,11.5178571 271.636364,10.8928571 C271.636364,9.76785714 272.527273,9.14285714 273.8,9.14285714 L275.072727,9.14285714 C275.2,9.14285714 275.327273,9.14285714 275.327273,9.26785714 L275.327273,9.76785714 C275.327273,9.89285714 275.2,9.89285714 275.2,9.89285714 C275.2,9.89285714 274.690909,9.64285714 274.436364,9.64285714 C273.8,9.64285714 273.290909,10.0178571 273.290909,10.8928571 C273.290909,11.6428571 273.8,12.2678571 274.563636,12.2678571 L275.581818,12.2678571 L275.581818,11.3928571 C275.581818,11.2678571 275.709091,11.2678571 275.709091,11.2678571 L276.727273,11.3928571 C276.854545,11.3928571 276.854545,11.3928571 276.854545,11.5178571 L276.854545,12.2678571 L277.872727,12.2678571 C278,12.2678571 278,12.2678571 278,12.3928571 L278,12.7678571 C277.745455,12.7678571 277.745455,12.8928571 277.618182,12.8928571 L277.618182,12.8928571 Z M275.327273,12.7678571 L274.054545,12.7678571 C273.163636,12.7678571 272.781818,13.3928571 272.781818,14.1428571 C272.781818,14.8928571 273.290909,15.6428571 273.927273,15.6428571 C274.563636,15.6428571 274.945455,15.6428571 275.327273,15.5178571 L275.327273,12.7678571 Z" id="Shape"></path>
                <path d="M114.833333,33.1428571 L113.166667,33.1428571 C113,33.1428571 113,33.1428571 113,33.0064935 L113,28.6428571 L113,24.2792208 C113,24.1428571 113,24.1428571 113.166667,24.1428571 L114.833333,24.1428571 C115,24.1428571 115,24.1428571 115,24.2792208 L115,28.6428571 L114.833333,33.1428571 C115,33.1428571 115,33.1428571 114.833333,33.1428571 L114.833333,33.1428571 Z" id="Path"></path>
                <path d="M125,30.5280195 L125,32.9224554 C125,33.1885038 124.176471,33.1885038 124.176471,33.0554796 L119.372549,26.6703172 C119.235294,26.537293 119.235294,26.6703172 119.235294,26.6703172 L119.372549,32.656407 C119.372549,32.7894312 119.372549,32.9224554 119.235294,32.9224554 L118.137255,32.9224554 C118,32.9224554 118,32.7894312 118,32.656407 L118.137255,26.4042688 L118.137255,24.2758814 C118.137255,24.1428571 118.137255,24.1428571 118.27451,24.1428571 L119.098039,24.1428571 C119.235294,24.1428571 119.372549,24.1428571 119.372549,24.2758814 L123.627451,29.9959227 C123.764706,30.1289469 123.901961,30.1289469 123.901961,29.9959227 L123.764706,24.5419298 C123.764706,24.4089056 123.764706,24.2758814 123.901961,24.2758814 L124.862745,24.2758814 C125,24.2758814 125,24.4089056 125,24.5419298 L125,30.5280195 Z" id="Path"></path>
                <path d="M133.867925,24.9488273 C133.867925,25.0831557 133.735849,25.0831557 133.867925,24.9488273 C133.735849,25.0831557 132.283019,24.9488273 131.490566,24.9488273 C131.358491,24.9488273 131.226415,25.0831557 131.226415,25.217484 L131.226415,28.7100213 L131.226415,33.0085288 C131.226415,33.1428571 131.226415,33.1428571 131.09434,33.1428571 L129.773585,33.1428571 C129.641509,33.1428571 129.641509,33.1428571 129.641509,33.0085288 L129.641509,28.7100213 L129.641509,25.217484 C129.641509,25.0831557 129.509434,24.9488273 129.377358,24.9488273 C128.584906,24.9488273 127.132075,25.0831557 127.132075,25.0831557 C127,25.0831557 127,25.0831557 127,24.9488273 L127,24.2771855 C127,24.1428571 127.132075,24.1428571 127.264151,24.1428571 L133.735849,24.1428571 C133.867925,24.1428571 134,24.1428571 134,24.2771855 L133.867925,24.9488273 Z" id="Path"></path>
                <path d="M140.6,33.1428571 L135.133333,33.1428571 C135,33.1428571 135,33.1428571 135,33.0064935 L135,28.6428571 L135,24.2792208 C135,24.1428571 135,24.1428571 135.133333,24.1428571 L140.466667,24.1428571 C140.6,24.1428571 140.733333,24.1428571 140.733333,24.2792208 L140.733333,24.961039 C140.733333,25.0974026 140.6,25.0974026 140.466667,25.0974026 C140.466667,25.0974026 138.866667,24.8246753 138.2,24.8246753 L137,24.8246753 C136.866667,24.8246753 136.6,24.961039 136.6,25.2337662 L136.6,27.961039 C136.6,27.961039 136.6,28.0974026 136.733333,28.0974026 L139.4,27.961039 C139.533333,27.961039 139.533333,27.961039 139.533333,28.0974026 L139.533333,28.7792208 C139.533333,28.9155844 139.4,28.9155844 139.4,28.9155844 L136.733333,28.7792208 C136.733333,28.7792208 136.6,28.7792208 136.6,28.9155844 L136.6,32.0519481 C136.6,32.1883117 136.733333,32.461039 137,32.461039 L138.2,32.461039 C139,32.461039 140.733333,32.1883117 140.733333,32.1883117 C140.866667,32.1883117 141,32.1883117 141,32.3246753 L141,33.1428571 C140.733333,33.1428571 140.733333,33.1428571 140.6,33.1428571 L140.6,33.1428571 Z" id="Path"></path>
                <path d="M149.740741,33.0064935 L148.185185,33.0064935 C148.055556,33.0064935 148.055556,32.8701299 147.925926,32.8701299 L146.111111,29.461039 C145.851852,29.0519481 145.592593,28.9155844 145.333333,28.9155844 L144.814815,28.9155844 C144.685185,28.9155844 144.555556,29.0519481 144.555556,29.1883117 L144.555556,33.0064935 C144.555556,33.1428571 144.555556,33.1428571 144.425926,33.1428571 L143.12963,33.1428571 C143,33.1428571 143,33.1428571 143,33.0064935 L143,28.6428571 L143,24.2792208 C143,24.1428571 143,24.1428571 143.12963,24.1428571 L146.888889,24.1428571 C148.185185,24.1428571 149.222222,25.0974026 149.222222,26.3246753 C149.222222,27.5519481 148.314815,28.5064935 147.148148,28.7792208 C147.018519,28.7792208 147.018519,28.9155844 147.148148,28.9155844 C147.277778,29.0519481 147.407407,29.1883117 147.666667,29.5974026 L149.611111,32.461039 L150,33.0064935 C149.87037,32.8701299 149.740741,33.0064935 149.740741,33.0064935 L149.740741,33.0064935 Z M145.851852,24.5519481 L144.944444,24.5519481 C144.814815,24.5519481 144.555556,24.6883117 144.555556,24.961039 L144.555556,27.961039 C144.555556,28.0974026 144.685185,28.2337662 144.814815,28.2337662 L145.333333,28.2337662 C146.62963,28.2337662 147.407407,27.6883117 147.407407,26.3246753 C147.277778,25.2337662 146.759259,24.5519481 145.851852,24.5519481 L145.851852,24.5519481 Z" id="Shape"></path>
                <path d="M159,30.5280195 L159,32.9224554 C159,33.1885038 158.176471,33.1885038 158.176471,33.0554796 L153.372549,26.6703172 C153.235294,26.537293 153.235294,26.6703172 153.235294,26.6703172 L153.372549,32.656407 C153.372549,32.7894312 153.372549,32.9224554 153.235294,32.9224554 L152.137255,32.9224554 C152,32.9224554 152,32.7894312 152,32.656407 L152.137255,26.4042688 L152.137255,24.2758814 C152.137255,24.1428571 152.137255,24.1428571 152.27451,24.1428571 L153.098039,24.1428571 C153.235294,24.1428571 153.372549,24.1428571 153.372549,24.2758814 L157.627451,29.9959227 C157.764706,30.1289469 157.901961,30.1289469 157.901961,29.9959227 L157.764706,24.5419298 C157.764706,24.4089056 157.764706,24.2758814 157.901961,24.2758814 L158.862745,24.2758814 C159,24.2758814 159,24.4089056 159,24.5419298 L159,30.5280195 Z" id="Path"></path>
                <path d="M167.848947,33.1428571 L166.279158,33.1428571 C166.148342,33.1428571 166.017526,33.1428571 166.017526,33.0080257 C166.017526,33.0080257 165.755894,32.3338684 165.625079,31.929374 L165.101816,30.7158909 C165.101816,30.5810594 164.971,30.5810594 164.971,30.5810594 L162.223868,30.5810594 C162.093053,30.5810594 162.093053,30.5810594 162.093053,30.7158909 L161.438974,33.0080257 C161.438974,33.1428571 161.308158,33.1428571 161.177342,33.1428571 L160.130816,33.1428571 C160,33.1428571 160,33.0080257 160,32.8731942 L163.270395,24.2439807 C163.270395,24.1091493 164.316921,24.1091493 164.316921,24.2439807 L167.325684,31.929374 C167.4565,32.3338684 167.848947,32.8731942 167.848947,32.8731942 C168.110579,33.1428571 167.979763,33.1428571 167.848947,33.1428571 L167.848947,33.1428571 Z M163.793658,26.5361156 C163.793658,26.4012841 163.662842,26.4012841 163.662842,26.5361156 L162.4855,29.9069021 C162.4855,30.0417335 162.4855,30.0417335 162.616316,30.0417335 L164.840184,30.0417335 C164.971,30.0417335 164.971,29.9069021 164.971,29.9069021 L163.793658,26.5361156 Z" id="Shape"></path>
                <path d="M175.867925,24.9488273 C175.867925,25.0831557 175.735849,25.0831557 175.735849,25.0831557 C175.735849,25.0831557 174.283019,24.9488273 173.490566,24.9488273 C173.358491,24.9488273 173.226415,25.0831557 173.226415,25.217484 L173.226415,28.7100213 L173.226415,33.0085288 C173.226415,33.1428571 173.226415,33.1428571 173.09434,33.1428571 L171.773585,33.1428571 C171.641509,33.1428571 171.641509,33.1428571 171.641509,33.0085288 L171.641509,28.7100213 L171.641509,25.217484 C171.641509,25.0831557 171.509434,24.9488273 171.377358,24.9488273 C170.584906,24.9488273 169.132075,25.0831557 169.132075,25.0831557 C169,25.0831557 169,25.0831557 169,24.9488273 L169,24.2771855 C169,24.1428571 169.132075,24.1428571 169.264151,24.1428571 L175.735849,24.1428571 C175.867925,24.1428571 176,24.1428571 176,24.2771855 L175.867925,24.9488273 Z" id="Path"></path>
                <path d="M178.833333,33.1428571 L177.166667,33.1428571 C177,33.1428571 177,33.1428571 177,33.0064935 L177,28.6428571 L177,24.2792208 C177,24.1428571 177,24.1428571 177.166667,24.1428571 L178.833333,24.1428571 C179,24.1428571 179,24.1428571 179,24.2792208 L179,28.6428571 L179,33.0064935 C179,33.1428571 179,33.1428571 178.833333,33.1428571 Z" id="Path"></path>
                <path d="M185.5,33.1428571 C182.844828,33.1428571 182,30.9571429 182,28.6428571 C182,26.3285714 182.844828,24.1428571 185.5,24.1428571 C188.155172,24.1428571 189,26.3285714 189,28.6428571 C189,30.8285714 188.155172,33.1428571 185.5,33.1428571 Z M185.5,24.7857143 C183.931034,24.7857143 183.689655,26.8428571 183.689655,28.5142857 C183.689655,30.0571429 183.810345,32.6285714 185.62069,32.6285714 C187.189655,32.6285714 187.431034,30.5714286 187.431034,28.9 C187.431034,27.2285714 187.310345,24.7857143 185.5,24.7857143 Z" id="Shape"></path>
                <path d="M198,30.5280195 L198,32.9224554 C198,33.1885038 197.176471,33.1885038 197.176471,33.0554796 L192.372549,26.6703172 C192.235294,26.537293 192.235294,26.6703172 192.235294,26.6703172 L192.372549,32.656407 C192.372549,32.7894312 192.372549,32.9224554 192.235294,32.9224554 L191.137255,32.9224554 C191,32.9224554 191,32.7894312 191,32.656407 L191.137255,26.4042688 L191.137255,24.2758814 C191.137255,24.1428571 191.137255,24.1428571 191.27451,24.1428571 L192.098039,24.1428571 C192.235294,24.1428571 192.372549,24.1428571 192.372549,24.2758814 L196.627451,29.9959227 C196.764706,30.1289469 196.901961,30.1289469 196.901961,29.9959227 L196.764706,24.5419298 C196.764706,24.4089056 196.764706,24.2758814 196.901961,24.2758814 L197.862745,24.2758814 C198,24.2758814 198,24.4089056 198,24.5419298 L198,30.5280195 Z" id="Path"></path>
                <path d="M207.901235,33.1428571 L206.320988,33.1428571 C206.1893,33.1428571 206.057613,33.1428571 206.057613,33.0080257 C206.057613,33.0080257 205.794239,32.3338684 205.662551,31.929374 L205.135802,30.7158909 C205.135802,30.5810594 205.004115,30.5810594 205.004115,30.5810594 L202.238683,30.5810594 C202.106996,30.5810594 202.106996,30.5810594 202.106996,30.7158909 L201.44856,33.0080257 C201.44856,33.1428571 201.316872,33.1428571 201.185185,33.1428571 L200.131687,33.1428571 C200,33.1428571 200,33.0080257 200,32.8731942 L203.292181,24.2439807 C203.292181,24.1091493 204.345679,24.1091493 204.345679,24.2439807 L207.374486,31.929374 C207.506173,32.3338684 207.901235,32.8731942 207.901235,32.8731942 C208.032922,33.1428571 208.032922,33.1428571 207.901235,33.1428571 L207.901235,33.1428571 Z M203.687243,26.5361156 C203.687243,26.4012841 203.555556,26.4012841 203.555556,26.5361156 L202.37037,29.9069021 C202.37037,30.0417335 202.37037,30.0417335 202.502058,30.0417335 L204.740741,30.0417335 C204.872428,30.0417335 204.872428,29.9069021 204.872428,29.9069021 L203.687243,26.5361156 Z" id="Shape"></path>
                <path d="M214.642857,33.1428571 L210.119048,33.1428571 C210,33.1428571 210,33.1428571 210,33.0064935 L210,28.6428571 L210,24.2792208 C210,24.1428571 210,24.1428571 210.119048,24.1428571 L211.309524,24.1428571 C211.428571,24.1428571 211.428571,24.1428571 211.428571,24.2792208 L211.428571,28.6428571 L211.428571,32.0519481 C211.428571,32.1883117 211.547619,32.461039 211.785714,32.461039 L212.738095,32.461039 C213.452381,32.461039 214.761905,32.1883117 214.761905,32.1883117 C214.880952,32.1883117 215,32.1883117 215,32.3246753 L215,33.1428571 C214.880952,33.1428571 214.761905,33.1428571 214.642857,33.1428571 L214.642857,33.1428571 Z" id="Path"></path>
                <path d="M224.059348,33.1428571 C222.78462,33.1428571 221.89231,32.8819876 221.127473,32.4906832 C221,32.4906832 221,32.3602484 221,32.2298137 L221.254946,31.3167702 C221.254946,31.1863354 221.382418,31.1863354 221.509891,31.3167702 C222.147255,31.9689441 223.039565,32.4906832 224.059348,32.4906832 C224.824185,32.4906832 225.716495,31.8385093 225.716495,31.0559006 C225.716495,28.8385093 221,29.7515528 221,26.4906832 C221,25.0559006 222.019783,24.1428571 223.549457,24.1428571 C224.824185,24.1428571 225.843968,24.4037267 226.481332,24.4037267 C226.608805,24.4037267 226.608805,24.5341615 226.608805,24.5341615 L226.353859,25.447205 C226.353859,25.5776398 226.226386,25.5776398 226.098913,25.5776398 C225.461549,25.1863354 224.824185,24.7950311 223.549457,24.7950311 C222.912092,24.7950311 222.274728,25.1863354 222.274728,25.9689441 C222.274728,28.3167702 226.991223,27.1428571 226.991223,30.7950311 C227.118696,32.4906832 225.843968,33.1428571 224.059348,33.1428571 Z" id="Path"></path>
                <path d="M234.867925,24.9488273 C234.867925,25.0831557 234.735849,25.0831557 234.735849,25.0831557 C234.735849,25.0831557 233.283019,24.9488273 232.490566,24.9488273 C232.358491,24.9488273 232.226415,25.0831557 232.226415,25.217484 L232.226415,28.7100213 L232.226415,33.0085288 C232.226415,33.1428571 232.226415,33.1428571 232.09434,33.1428571 L230.773585,33.1428571 C230.641509,33.1428571 230.641509,33.1428571 230.641509,33.0085288 L230.641509,28.7100213 L230.641509,25.217484 C230.641509,25.0831557 230.509434,24.9488273 230.377358,24.9488273 C229.584906,24.9488273 228.132075,25.0831557 228.132075,25.0831557 C228,25.0831557 228,25.0831557 228,24.9488273 L228,24.2771855 C228,24.1428571 228.132075,24.1428571 228.264151,24.1428571 L234.735849,24.1428571 C234.867925,24.1428571 235,24.1428571 235,24.2771855 L234.867925,24.9488273 Z" id="Path"></path>
                <path d="M243.862745,25.447205 L243.72549,30.2732919 C243.72549,32.0993789 242.627451,33.1428571 240.568627,33.1428571 C238.235294,33.1428571 237,32.2298137 237,30.2732919 L237,25.3167702 L237,24.4037267 C237,24.2732919 237,24.2732919 237.137255,24.2732919 L238.509804,24.2732919 C238.647059,24.2732919 238.647059,24.2732919 238.647059,24.4037267 L238.647059,25.3167702 L238.647059,30.1428571 C238.647059,31.447205 239.607843,32.2298137 240.568627,32.2298137 C241.529412,32.2298137 242.490196,31.7080745 242.490196,30.2732919 L242.490196,25.447205 C242.490196,25.0559006 242.490196,24.4037267 242.490196,24.4037267 C242.490196,24.2732919 242.490196,24.1428571 242.627451,24.1428571 L243.862745,24.1428571 C244,24.1428571 244,24.2732919 244,24.4037267 C243.862745,24.4037267 243.862745,25.0559006 243.862745,25.447205 L243.862745,25.447205 Z" id="Path"></path>
                <path d="M248.961538,33.1428571 C247.346154,33.1428571 247.211538,33.0064935 246.807692,33.0064935 C246.403846,33.0064935 246.403846,33.1428571 246.134615,33.1428571 C246,33.1428571 246,33.1428571 246,33.0064935 L246,28.6428571 L246,24.2792208 C246,24.1428571 246,24.1428571 246.134615,24.1428571 L249.365385,24.1428571 C251.25,24.1428571 253,25.6428571 253,28.5064935 C253,30.961039 251.519231,33.1428571 248.961538,33.1428571 L248.961538,33.1428571 Z M248.961538,24.6883117 L248.019231,24.6883117 C247.884615,24.6883117 247.75,24.8246753 247.75,24.961039 L247.75,28.5064935 L247.75,31.6428571 C247.75,32.1883117 248.153846,32.461039 248.826923,32.461039 C250.980769,32.461039 251.25,29.8701299 251.25,28.2337662 C251.25,25.6428571 250.038462,24.6883117 248.961538,24.6883117 L248.961538,24.6883117 Z" id="Shape"></path>
                <path d="M256.772162,33.1428571 L255.161106,33.1428571 C255,33.1428571 255,33.1428571 255,33.0064935 L255,28.6428571 L255,24.2792208 C255,24.1428571 255,24.1428571 255.161106,24.1428571 L256.772162,24.1428571 C256.933268,24.1428571 256.933268,24.1428571 256.933268,24.2792208 L256.933268,28.6428571 L256.933268,33.0064935 C257.094374,33.1428571 256.933268,33.1428571 256.772162,33.1428571 Z" id="Path"></path>
                <path d="M265.6,33.1428571 L260.133333,33.1428571 C260,33.1428571 260,33.1428571 260,33.0064935 L260,28.6428571 L260,24.2792208 C260,24.1428571 260,24.1428571 260.133333,24.1428571 L265.466667,24.1428571 C265.6,24.1428571 265.733333,24.1428571 265.733333,24.2792208 L265.733333,24.961039 C265.733333,25.0974026 265.6,25.0974026 265.466667,25.0974026 C265.466667,25.0974026 263.866667,24.8246753 263.2,24.8246753 L262,24.8246753 C261.866667,24.8246753 261.6,24.961039 261.6,25.2337662 L261.6,27.961039 C261.6,27.961039 261.6,28.0974026 261.733333,28.0974026 L264.4,27.961039 C264.533333,27.961039 264.533333,27.961039 264.533333,28.0974026 L264.533333,28.7792208 C264.533333,28.9155844 264.4,28.9155844 264.4,28.9155844 L261.733333,28.7792208 C261.733333,28.7792208 261.6,28.7792208 261.6,28.9155844 L261.6,32.0519481 C261.6,32.1883117 261.733333,32.461039 262,32.461039 L263.2,32.461039 C264,32.461039 265.733333,32.1883117 265.733333,32.1883117 C265.866667,32.1883117 266,32.1883117 266,32.3246753 L266,33.1428571 C265.866667,33.1428571 265.733333,33.1428571 265.6,33.1428571 L265.6,33.1428571 Z" id="Path"></path>
                <path d="M270.059348,33.1428571 C268.78462,33.1428571 267.89231,32.8819876 267.127473,32.4906832 C267,32.4906832 267,32.3602484 267,32.2298137 L267.254946,31.3167702 C267.254946,31.1863354 267.382418,31.1863354 267.509891,31.3167702 C268.147255,31.9689441 269.039565,32.4906832 270.059348,32.4906832 C270.824185,32.4906832 271.716495,31.8385093 271.716495,31.0559006 C271.716495,28.8385093 267,29.7515528 267,26.4906832 C267,25.0559006 268.019783,24.1428571 269.549457,24.1428571 C270.824185,24.1428571 271.843968,24.4037267 272.481332,24.4037267 C272.608805,24.4037267 272.608805,24.5341615 272.608805,24.5341615 L272.353859,25.447205 C272.353859,25.5776398 272.226386,25.5776398 272.098913,25.5776398 C271.461549,25.1863354 270.824185,24.7950311 269.549457,24.7950311 C268.912092,24.7950311 268.274728,25.1863354 268.274728,25.9689441 C268.274728,28.3167702 272.991223,27.1428571 272.991223,30.7950311 C273.118696,32.4906832 271.843968,33.1428571 270.059348,33.1428571 Z" id="Path"></path>
            </g>
        </g>
    </g>
</svg>