<svg aria-hidden="true" style="position: absolute; width: 0; height: 0; overflow: hidden;" version="1.1" xmlns="http://www.w3.org/2000/svg" xmlns:xlink="http://www.w3.org/1999/xlink">
<defs>
<symbol id="icon-email" viewBox="0 0 43 32">
<title>email</title>
<path d="M1.6 0h40.458v5.698l-20.229 11.531-20.229-11.531v-5.698zM1.6 9.339l10.317 5.866-10.317 10.823v-16.689zM42.058 9.339v16.689l-10.317-10.823 10.317-5.866zM14.749 16.824l7.080 4.046 7.080-4.046 13.149 13.79h-40.458l13.149-13.79z"></path>
</symbol>
<symbol id="icon-print" viewBox="0 0 32 32">
<title>print</title>
<path d="M30 10c0.542 0 1.010 0.198 1.406 0.594s0.594 0.865 0.594 1.406v10c0 0.542-0.198 1.010-0.594 1.406s-0.865 0.594-1.406 0.594h-2v6c0 0.542-0.198 1.010-0.594 1.406s-0.865 0.594-1.406 0.594h-20c-0.542 0-1.010-0.198-1.406-0.594s-0.594-0.865-0.594-1.406v-6h-2c-0.542 0-1.010-0.198-1.406-0.594s-0.594-0.865-0.594-1.406v-10c0-0.542 0.198-1.010 0.594-1.406s0.865-0.594 1.406-0.594h2v-8c0-0.542 0.198-1.010 0.594-1.406s0.865-0.594 1.406-0.594h20c0.542 0 1.010 0.198 1.406 0.594s0.594 0.865 0.594 1.406v8h2zM6 20v10h20v-10h-20zM22.25 15.75c0.208 0.167 0.458 0.25 0.75 0.25s0.531-0.094 0.719-0.281c0.188-0.188 0.281-0.427 0.281-0.719s-0.094-0.531-0.281-0.719c-0.188-0.188-0.427-0.281-0.719-0.281s-0.531 0.094-0.719 0.281c-0.188 0.188-0.281 0.427-0.281 0.719s0.083 0.542 0.25 0.75zM5.688 15.75c0.208-0.208 0.313-0.458 0.313-0.75s-0.094-0.531-0.281-0.719c-0.188-0.188-0.427-0.281-0.719-0.281s-0.531 0.094-0.719 0.281c-0.188 0.188-0.281 0.427-0.281 0.719s0.094 0.531 0.281 0.719c0.188 0.188 0.427 0.281 0.719 0.281s0.521-0.083 0.688-0.25zM27.688 15.75c0.208-0.208 0.313-0.458 0.313-0.75s-0.094-0.531-0.281-0.719c-0.188-0.188-0.427-0.281-0.719-0.281s-0.531 0.094-0.719 0.281c-0.188 0.188-0.281 0.427-0.281 0.719s0.094 0.531 0.281 0.719c0.188 0.188 0.427 0.281 0.719 0.281s0.521-0.083 0.688-0.25zM6 2v8h20v-8h-20zM23.688 23.75c-0.167 0.167-0.396 0.25-0.688 0.25h-14c-0.292 0-0.531-0.094-0.719-0.281s-0.281-0.427-0.281-0.719c0-0.292 0.094-0.531 0.281-0.719s0.427-0.281 0.719-0.281h14c0.292 0 0.531 0.094 0.719 0.281s0.281 0.427 0.281 0.719c0 0.292-0.104 0.542-0.313 0.75zM23 26c0.292 0 0.531 0.094 0.719 0.281s0.281 0.427 0.281 0.719c0 0.292-0.094 0.531-0.281 0.719s-0.427 0.281-0.719 0.281h-14c-0.292 0-0.531-0.094-0.719-0.281s-0.281-0.427-0.281-0.719c0-0.292 0.094-0.531 0.281-0.719s0.427-0.281 0.719-0.281h14z"></path>
</symbol>
<symbol id="icon-arrow-down" viewBox="0 0 32 32">
<title>arrow-down</title>
<path d="M14.687 19.881l11.833-12.961c0.298-0.338 0.597-0.338 0.895 0l1.679 1.902c0.298 0.38 0.317 0.719 0.056 1.014l-14.016 15.307c-0.112 0.127-0.261 0.19-0.448 0.19s-0.336-0.063-0.448-0.19l-14.016-15.307c-0.298-0.338-0.298-0.676 0-1.014l1.735-1.902c0.298-0.338 0.597-0.338 0.895 0l11.833 12.961z"></path>
</symbol>
<symbol id="icon-arrow-chev-left" viewBox="0 0 32 32">
<title>arrow-chev-left</title>
<path d="M11.65 15.978l12.481 12.909c0.326 0.326 0.326 0.651 0 0.977l-1.832 1.893c-0.326 0.326-0.651 0.326-0.977 0l-14.74-15.29c-0.122-0.122-0.183-0.285-0.183-0.488s0.061-0.366 0.183-0.488l14.74-15.29c0.285-0.285 0.611-0.265 0.977 0.061l1.832 1.832c0.326 0.326 0.326 0.651 0 0.977l-12.481 12.909z"></path>
</symbol>
<symbol id="icon-arrow-chev-right" viewBox="0 0 32 32">
<title>arrow-chev-right</title>
<path d="M19.126 15.978l-12.481-12.909c-0.326-0.326-0.326-0.651 0-0.977l1.832-1.832c0.366-0.326 0.692-0.346 0.977-0.061l14.74 15.29c0.122 0.122 0.183 0.285 0.183 0.488s-0.061 0.366-0.183 0.488l-14.74 15.29c-0.326 0.326-0.651 0.326-0.977 0l-1.832-1.893c-0.326-0.326-0.326-0.651 0-0.977l12.481-12.909z"></path>
</symbol>
<symbol id="icon-arrow-dropdown" viewBox="0 0 32 32">
<title>arrow-dropdown</title>
<path d="M8 12h16l-8 8z"></path>
</symbol>
<symbol id="icon-arrow" viewBox="0 0 32 32">
<title>arrow</title>
<path d="M20.452 5.286l0.149-0.135c0.637-0.51 1.544-0.453 2.114 0.101l0.135 0.149 8.052 10.069 0.088 0.137 0.057 0.109 0.083 0.215 0.038 0.15 0.013 0.073 0.018 0.193-0.005 0.19-0.019 0.147-0.045 0.186-0.065 0.176-0.075 0.149c-0.041 0.071-0.087 0.14-0.14 0.206l0.112-0.159-0.060 0.090-8.052 10.069c-0.552 0.69-1.559 0.802-2.249 0.25-0.637-0.51-0.781-1.407-0.366-2.084l0.116-0.165 5.92-7.401h-24.67c-0.821 0-1.497-0.618-1.589-1.413l-0.011-0.187c0-0.821 0.618-1.497 1.413-1.589l0.187-0.011h24.67l-5.92-7.401c-0.51-0.637-0.453-1.544 0.101-2.114v0z"></path>
</symbol>
<symbol id="icon-check-dash" viewBox="0 0 32 32">
<title>check-dash</title>
<path d="M7.111 17.778v-3.556h18.667v3.556h-18.667zM28.444 0h-24.889c-1.966 0-3.556 1.591-3.556 3.556v24.889c0 1.964 1.589 3.556 3.556 3.556h24.889c1.964 0 3.556-1.592 3.556-3.556v-24.889c0-1.964-1.592-3.556-3.556-3.556z"></path>
</symbol>
<symbol id="icon-check-empty" viewBox="0 0 32 32">
<title>check-empty</title>
<path d="M28.444 0h-24.889c-1.964 0-3.556 1.592-3.556 3.556v24.889c0 1.964 1.592 3.556 3.556 3.556h24.889c1.964 0 3.556-1.592 3.556-3.556v-24.889c0-1.964-1.592-3.556-3.556-3.556zM28.444 3.556v24.889l-24.889 0.004v-24.889l24.889-0.004z"></path>
</symbol>
<symbol id="icon-check-filled" viewBox="0 0 32 32">
<title>check-filled</title>
<path d="M12.444 24.889l-8.889-8.889 2.512-2.514 6.377 6.375 13.486-13.486 2.514 2.514-16 16zM28.444 0h-24.889c-1.966 0-3.556 1.591-3.556 3.556v24.889c0 1.964 1.589 3.556 3.556 3.556h24.889c1.964 0 3.556-1.592 3.556-3.556v-24.889c0-1.964-1.592-3.556-3.556-3.556z"></path>
</symbol>
<symbol id="icon-close-circle" viewBox="0 0 32 32">
<title>close-circle</title>
<path d="M24.484 21.658l-2.828 2.828-5.656-5.658-5.656 5.658-2.828-2.828 5.656-5.658-5.656-5.656 2.828-2.828 5.656 5.656 5.656-5.656 2.828 2.828-5.656 5.656 5.656 5.658zM16 0c-8.836 0-16 7.164-16 16 0 8.838 7.164 16 16 16s16-7.162 16-16c0-8.836-7.164-16-16-16v0z"></path>
</symbol>
<symbol id="icon-close" viewBox="0 0 32 32">
<title>close</title>
<path d="M3.669 3.669c0.625-0.625 1.638-0.625 2.263 0v0l10.069 10.067 10.069-10.067c0.577-0.577 1.484-0.621 2.112-0.133l0.151 0.133c0.625 0.625 0.625 1.638 0 2.263v0l-10.067 10.069 10.067 10.069c0.577 0.577 0.621 1.484 0.133 2.112l-0.133 0.151c-0.625 0.625-1.638 0.625-2.263 0v0l-10.069-10.067-10.069 10.067c-0.577 0.577-1.484 0.621-2.112 0.133l-0.151-0.133c-0.625-0.625-0.625-1.638 0-2.263v0l10.067-10.069-10.067-10.069c-0.577-0.577-0.621-1.484-0.133-2.112z"></path>
</symbol>
<symbol id="icon-columns" viewBox="0 0 32 32">
<title>columns</title>
<path d="M6.836 0c1.274 0 2.307 1.028 2.307 2.301v27.397c0 1.271-1.013 2.301-2.307 2.301h-4.529c-1.274 0-2.307-1.028-2.307-2.301v-27.397c0-1.271 1.013-2.301 2.307-2.301h4.529zM18.264 0c1.274 0 2.307 1.028 2.307 2.301v27.397c0 1.271-1.013 2.301-2.307 2.301h-4.529c-1.274 0-2.307-1.028-2.307-2.301v-27.397c0-1.271 1.013-2.301 2.307-2.301h4.529zM29.693 0c1.274 0 2.307 1.028 2.307 2.301v27.397c0 1.271-1.013 2.301-2.307 2.301h-4.529c-1.274 0-2.307-1.028-2.307-2.301v-27.397c0-1.271 1.013-2.301 2.307-2.301h4.529z"></path>
</symbol>
<symbol id="icon-download" viewBox="0 0 32 32">
<title>download</title>
<path d="M30.4 19.2c0.821 0 1.497 0.618 1.589 1.413l0.011 0.187v6.4c0 2.556-1.998 4.646-4.518 4.792l-0.282 0.008h-22.4c-2.556 0-4.646-1.998-4.792-4.518l-0.008-0.282v-6.4c0-0.884 0.716-1.6 1.6-1.6 0.821 0 1.497 0.618 1.589 1.413l0.011 0.187v6.4c0 0.821 0.618 1.497 1.413 1.589l0.187 0.011h22.4c0.821 0 1.497-0.618 1.589-1.413l0.011-0.187v-6.4c0-0.884 0.716-1.6 1.6-1.6zM16 0c0.884 0 1.6 0.716 1.6 1.6v0 15.336l5.269-5.267c0.625-0.625 1.638-0.625 2.263 0 0.577 0.577 0.621 1.484 0.133 2.112l-0.133 0.151-8 8c-0.046 0.046-0.094 0.088-0.145 0.128l0.145-0.128c-0.057 0.057-0.116 0.108-0.179 0.154-0.039 0.029-0.078 0.055-0.119 0.080-0.019 0.012-0.039 0.023-0.059 0.034-0.032 0.017-0.064 0.034-0.098 0.050-0.027 0.013-0.055 0.025-0.083 0.036-0.032 0.013-0.063 0.024-0.095 0.035-0.024 0.008-0.048 0.015-0.073 0.022-0.035 0.010-0.069 0.018-0.104 0.025-0.028 0.006-0.056 0.010-0.084 0.015-0.077 0.012-0.157 0.018-0.238 0.018l0.136-0.006c-0.028 0.002-0.055 0.004-0.083 0.005l-0.053 0.001c-0.018 0-0.036-0-0.053-0.001-0.027-0.001-0.056-0.003-0.085-0.005-0.035-0.003-0.068-0.007-0.1-0.012-0.027-0.004-0.055-0.009-0.083-0.015-0.035-0.007-0.070-0.015-0.104-0.025-0.025-0.007-0.050-0.014-0.074-0.022-0.031-0.010-0.063-0.022-0.094-0.034-0.028-0.011-0.056-0.023-0.083-0.036-0.033-0.016-0.066-0.032-0.098-0.050-0.019-0.011-0.039-0.022-0.058-0.034-0.041-0.025-0.081-0.052-0.119-0.081-0.010-0.007-0.019-0.014-0.028-0.021-0.057-0.045-0.105-0.088-0.151-0.133l-8-8c-0.625-0.625-0.625-1.638 0-2.263 0.577-0.577 1.484-0.621 2.112-0.133l0.151 0.133 5.269 5.267v-15.336c0-0.821 0.618-1.497 1.413-1.589z"></path>
</symbol>
<symbol id="icon-external-link" viewBox="0 0 32 32">
<title>external-link</title>
<path d="M26.357 26.357v-9.485h3.067v9.485c0 0.808-0.309 1.521-0.927 2.139s-1.331 0.927-2.139 0.927h-21.252c-0.808 0-1.521-0.309-2.139-0.927s-0.927-1.331-0.927-2.139v-21.252c0-0.808 0.309-1.521 0.927-2.139s1.331-0.927 2.139-0.927h9.485v3.067h-9.485v21.252h21.252zM18.014 2.039h11.41v11.41h-3.067v-6.204l-15.333 15.333-2.139-2.139 15.333-15.333h-6.204v-3.067z"></path>
</symbol>
<symbol id="icon-eye" viewBox="0 0 32 32">
<title>eye</title>
<path d="M16 12c-2.259-0-4.091 1.79-4.092 3.999s1.831 4 4.090 4.001c2.259 0 4.091-1.791 4.091-4s-1.832-4-4.091-4h0.001zM16 22.667c-3.766 0-6.819-2.985-6.819-6.667s3.053-6.667 6.819-6.667c3.766 0 6.819 2.985 6.819 6.667s-3.053 6.667-6.819 6.667zM16 6c-6.822 0-12.645 4.148-15 10 2.355 5.853 8.178 10 15 10 6.821 0 12.642-4.147 15-10-2.358-5.852-8.179-10-15-10z"></path>
</symbol>
<symbol id="icon-filter2" viewBox="0 0 32 32">
<title>filter2</title>
<path d="M31.758 3.812c-0.128 0.616-0.423 1.155-0.885 1.617l-9.545 10.051v15.134c0 0.642-0.295 1.078-0.885 1.309-0.18 0.051-0.346 0.077-0.5 0.077-0.411 0-0.744-0.141-1.001-0.424l-4.811-4.968c-0.282-0.257-0.423-0.578-0.423-0.963v-10.089l-10.508-10.128c-0.436-0.462-0.718-1.008-0.847-1.637s-0.071-1.245 0.173-1.848c0.244-0.603 0.635-1.078 1.174-1.425s1.129-0.52 1.771-0.52h23.171c0.642 0 1.232 0.173 1.77 0.52s0.93 0.822 1.174 1.425c0.244 0.603 0.302 1.226 0.173 1.868z"></path>
</symbol>
<symbol id="icon-font-size" viewBox="0 0 32 32">
<title>font-size</title>
<path d="M10.514 20.571l5.486-14.4 5.486 14.4h-10.971zM13.714 0l-12.571 32h5.029l2.514-6.857h14.171l2.514 6.857h5.029l-12.114-32h-4.571z"></path>
</symbol>
<symbol id="icon-info" viewBox="0 0 32 32">
<title>info</title>
<path d="M16 0.771c8.41 0 15.229 6.819 15.229 15.229s-6.819 15.229-15.229 15.229c-8.41 0-15.229-6.819-15.229-15.229s6.819-15.229 15.229-15.229zM16 3.207c-7.064 0-12.793 5.728-12.793 12.793s5.728 12.793 12.793 12.793c7.064 0 12.793-5.728 12.793-12.793s-5.728-12.793-12.793-12.793zM16.609 12.954c0.606 0 1.108 0.442 1.202 1.021l0.016 0.198 0.002 0.611c0.014 0.075 0.022 0.152 0.022 0.231l-0.002 7.614 0.996 0.001c0.703 0.005 1.261 0.070 1.337 0.99l0.009 0.228c0 1.137-0.589 1.213-1.346 1.218l-4.65 0c-0.673 0-1.218 0-1.218-1.218 0-1.131 0.47-1.212 1.076-1.218l1.336-0.001 0.001-7.238-1.36-0c-0.606-0.006-1.076-0.087-1.076-1.218s0.47-1.212 1.076-1.218l2.579-0zM16.152 6.862c1.093 0 1.98 0.886 1.98 1.98s-0.886 1.98-1.98 1.98c-1.093 0-1.98-0.886-1.98-1.98s0.886-1.98 1.98-1.98z"></path>
</symbol>
<symbol id="icon-reset" viewBox="0 0 32 32">
<title>reset</title>
<path d="M3.874 11.924l-1.231-1.87c-0.214-0.322-0.545-0.543-0.921-0.615s-0.764 0.012-1.078 0.233c-0.663 0.458-0.843 1.374-0.403 2.043l3.192 4.847c0.214 0.322 0.545 0.543 0.921 0.615s0.764-0.012 1.078-0.233l4.805-3.317c0.662-0.453 0.842-1.364 0.403-2.041-0.214-0.322-0.545-0.544-0.921-0.616s-0.764 0.011-1.078 0.232l-1.954 1.351c1.431-4.844 5.803-8.368 10.975-8.368 6.334 0 11.47 5.29 11.47 11.815s-5.136 11.815-11.47 11.815c-0.792 0-1.435 0.662-1.435 1.477s0.643 1.477 1.435 1.477c7.919 0 14.338-6.612 14.338-14.769s-6.42-14.769-14.338-14.769c-6.548 0-12.069 4.519-13.788 10.693z"></path>
</symbol>
<symbol id="icon-rows" viewBox="0 0 32 32">
<title>rows</title>
<path d="M32 6.836c0 1.274-1.028 2.307-2.301 2.307h-27.397c-1.271 0-2.301-1.013-2.301-2.307v-4.529c0-1.274 1.028-2.307 2.301-2.307h27.397c1.271 0 2.301 1.013 2.301 2.307v4.529zM32 18.264c0 1.274-1.028 2.307-2.301 2.307h-27.397c-1.271 0-2.301-1.013-2.301-2.307v-4.529c0-1.274 1.028-2.307 2.301-2.307h27.397c1.271 0 2.301 1.013 2.301 2.307v4.529zM32 29.693c0 1.274-1.028 2.307-2.301 2.307h-27.397c-1.271 0-2.301-1.013-2.301-2.307v-4.529c0-1.274 1.028-2.307 2.301-2.307h27.397c1.271 0 2.301 1.013 2.301 2.307v4.529z"></path>
</symbol>
<symbol id="icon-search" viewBox="0 0 32 32">
<title>search</title>
<path d="M11.294 19.765c-4.158 0-7.529-3.371-7.529-7.529s3.371-7.529 7.529-7.529c4.158 0 7.529 3.371 7.529 7.529s-3.371 7.529-7.529 7.529zM29.566 27.846l-9.073-9.073c1.314-1.847 2.095-4.098 2.095-6.537 0-6.236-5.058-11.294-11.294-11.294s-11.294 5.058-11.294 11.294c0 6.236 5.058 11.294 11.294 11.294 2.44 0 4.691-0.781 6.537-2.095l9.073 9.073c0.367 0.367 0.849 0.552 1.331 0.552s0.964-0.184 1.331-0.552c0.736-0.736 0.736-1.926 0-2.662z"></path>
</symbol>
<symbol id="icon-arrow-up" viewBox="0 0 32 32">
<title>arrow-up</title>
<path d="M27.414 12.586l-10-10c-0.781-0.781-2.047-0.781-2.828 0l-10 10c-0.781 0.781-0.781 2.047 0 2.828s2.047 0.781 2.828 0l6.586-6.586v19.172c0 1.105 0.895 2 2 2s2-0.895 2-2v-19.172l6.586 6.586c0.39 0.39 0.902 0.586 1.414 0.586s1.024-0.195 1.414-0.586c0.781-0.781 0.781-2.047 0-2.828z"></path>
</symbol>
<symbol id="icon-facebook" viewBox="0 0 32 32">
<title>facebook</title>
<path d="M29 0h-26c-1.65 0-3 1.35-3 3v26c0 1.65 1.35 3 3 3h13v-14h-4v-4h4v-2c0-3.306 2.694-6 6-6h4v4h-4c-1.1 0-2 0.9-2 2v2h6l-1 4h-5v14h9c1.65 0 3-1.35 3-3v-26c0-1.65-1.35-3-3-3z"></path>
</symbol>
<symbol id="icon-twitter" viewBox="0 0 32 32">
<title>twitter</title>
<path d="M32 7.075c-1.175 0.525-2.444 0.875-3.769 1.031 1.356-0.813 2.394-2.1 2.887-3.631-1.269 0.75-2.675 1.3-4.169 1.594-1.2-1.275-2.906-2.069-4.794-2.069-3.625 0-6.563 2.938-6.563 6.563 0 0.512 0.056 1.012 0.169 1.494-5.456-0.275-10.294-2.888-13.531-6.862-0.563 0.969-0.887 2.1-0.887 3.3 0 2.275 1.156 4.287 2.919 5.463-1.075-0.031-2.087-0.331-2.975-0.819 0 0.025 0 0.056 0 0.081 0 3.181 2.263 5.838 5.269 6.437-0.55 0.15-1.131 0.231-1.731 0.231-0.425 0-0.831-0.044-1.237-0.119 0.838 2.606 3.263 4.506 6.131 4.563-2.25 1.762-5.075 2.813-8.156 2.813-0.531 0-1.050-0.031-1.569-0.094 2.913 1.869 6.362 2.95 10.069 2.95 12.075 0 18.681-10.006 18.681-18.681 0-0.287-0.006-0.569-0.019-0.85 1.281-0.919 2.394-2.075 3.275-3.394z"></path>
</symbol>
<symbol id="icon-linkedin" viewBox="0 0 32 32">
<title>linkedin</title>
<path d="M29 0h-26c-1.65 0-3 1.35-3 3v26c0 1.65 1.35 3 3 3h26c1.65 0 3-1.35 3-3v-26c0-1.65-1.35-3-3-3zM12 26h-4v-14h4v14zM10 10c-1.106 0-2-0.894-2-2s0.894-2 2-2c1.106 0 2 0.894 2 2s-0.894 2-2 2zM26 26h-4v-8c0-1.106-0.894-2-2-2s-2 0.894-2 2v8h-4v-14h4v2.481c0.825-1.131 2.087-2.481 3.5-2.481 2.488 0 4.5 2.238 4.5 5v9z"></path>
</symbol>
</defs>

    <view id="icon-check-filled-view" viewBox="0 0 35 35" />
    <view id="shape-admin-view" viewBox="0 36 35 35" />

	<use xlink:href="#icon-check-filled" width="35" height="35" x="0" y="0" id="apis"></use>
	<use xlink:href="#shape-admin" width="35" height="35" x="0" y="36" id="admin"></use>
</svg>
